<svg width="1024" height="1024" xmlns="http://www.w3.org/2000/svg" class="icon">
 <defs>
  <style type="text/css"/>
 </defs>
 <g>
  <title>background</title>
  <rect fill="none" id="canvas_background" height="402" width="582" y="-1" x="-1"/>
 </g>
 <g>
  <title>Layer 1</title>
  <path id="svg_1" fill="#ffffff" d="m514.78607,5.09453c-281.21791,0 -509.45274,228.23482 -509.45274,509.45273s228.23483,509.45274 509.45274,509.45274s509.45274,-228.23483 509.45274,-509.45274s-228.23483,-509.45273 -509.45274,-509.45273zm218.55522,237.40497l-79.98408,480.41393c-1.0189,6.11344 -4.58507,10.69851 -10.18905,14.26468c-3.05672,1.52836 -6.11343,2.54726 -9.6796,2.54726c-2.54727,0 -4.58508,-0.50945 -7.64179,-1.52835l-141.62786,-58.07762l-75.90846,92.21095c-3.56617,4.58507 -8.6607,7.13234 -15.28358,7.13234c-2.54727,0 -5.09453,-0.50946 -7.13234,-1.01891c-4.07562,-1.52836 -7.13234,-4.07562 -9.6796,-7.13234c-2.54727,-3.56617 -3.56617,-7.13233 -3.56617,-11.20796l0,-109.02288l270.00995,-331.14428l-334.201,289.36915l-123.28756,-50.43582c-7.64179,-3.05671 -11.71741,-8.66069 -12.22687,-17.32139c-0.50945,-8.15124 3.05672,-14.26468 10.18906,-18.3403l520.15124,-300.06766c3.05672,-2.03781 6.62289,-2.54726 10.18906,-2.54726c4.07562,0 8.15124,1.0189 11.20796,3.56616c7.64179,3.56617 10.18905,10.18906 8.66069,18.3403z"/>
 </g>
</svg>